<mxfile host="app.diagrams.net" modified="2023-11-16T00:20:20.386Z" agent="Mozilla/5.0 (Windows NT 10.0; Win64; x64) AppleWebKit/537.36 (KHTML, like Gecko) Chrome/118.0.0.0 Safari/537.36 OPR/104.0.0.0" etag="6rJJYF3Z3z_Ypsk_HwvT" version="22.1.2" type="google">
  <diagram name="Strona-1" id="mD7NymhUwHv4c7U9L3IB">
    <mxGraphModel grid="1" page="1" gridSize="10" guides="1" tooltips="1" connect="1" arrows="1" fold="1" pageScale="1" pageWidth="827" pageHeight="1169" math="0" shadow="0">
      <root>
        <mxCell id="0" />
        <mxCell id="1" parent="0" />
        <mxCell id="diT2KmM1LXYmS_JBKyu8-42" value="&lt;p style=&quot;line-height: 100%;&quot;&gt;workstation 3 - PC&amp;nbsp;&lt;br&gt;&lt;br&gt;&lt;br&gt;&lt;br&gt;&lt;br&gt;&lt;br&gt;&lt;br&gt;&lt;br&gt;&lt;br&gt;&lt;br&gt;&lt;/p&gt;" style="shape=cube;whiteSpace=wrap;html=1;boundedLbl=1;backgroundOutline=1;darkOpacity=0.05;darkOpacity2=0.1;fillColor=#dae8fc;strokeColor=#6c8ebf;align=center;" vertex="1" parent="1">
          <mxGeometry x="770" y="490" width="190" height="190" as="geometry" />
        </mxCell>
        <mxCell id="diT2KmM1LXYmS_JBKyu8-38" value="&lt;p style=&quot;line-height: 100%;&quot;&gt;workstation 2 - PC&amp;nbsp;&lt;br&gt;&lt;br&gt;&lt;br&gt;&lt;br&gt;&lt;br&gt;&lt;br&gt;&lt;br&gt;&lt;br&gt;&lt;br&gt;&lt;br&gt;&lt;/p&gt;" style="shape=cube;whiteSpace=wrap;html=1;boundedLbl=1;backgroundOutline=1;darkOpacity=0.05;darkOpacity2=0.1;fillColor=#dae8fc;strokeColor=#6c8ebf;align=center;" vertex="1" parent="1">
          <mxGeometry x="770" y="280" width="190" height="190" as="geometry" />
        </mxCell>
        <mxCell id="diT2KmM1LXYmS_JBKyu8-31" value="&lt;p style=&quot;line-height: 100%;&quot;&gt;software provider&#39;s PC&lt;/p&gt;&lt;p style=&quot;line-height: 100%;&quot;&gt;&lt;br&gt;&lt;/p&gt;" style="shape=cube;whiteSpace=wrap;html=1;boundedLbl=1;backgroundOutline=1;darkOpacity=0.05;darkOpacity2=0.1;fillColor=#ffe6cc;strokeColor=#d79b00;align=center;movableLabel=1;" vertex="1" parent="1">
          <mxGeometry x="-260" y="380" width="330" height="360" as="geometry">
            <mxPoint x="-1" y="-116" as="offset" />
          </mxGeometry>
        </mxCell>
        <mxCell id="diT2KmM1LXYmS_JBKyu8-19" value="&lt;p style=&quot;line-height: 100%;&quot;&gt;workstation 1 - PC&amp;nbsp;&lt;br&gt;&lt;br&gt;&lt;br&gt;&lt;br&gt;&lt;br&gt;&lt;br&gt;&lt;br&gt;&lt;br&gt;&lt;br&gt;&lt;br&gt;&lt;/p&gt;" style="shape=cube;whiteSpace=wrap;html=1;boundedLbl=1;backgroundOutline=1;darkOpacity=0.05;darkOpacity2=0.1;fillColor=#dae8fc;strokeColor=#6c8ebf;align=center;" vertex="1" parent="1">
          <mxGeometry x="770" y="70" width="190" height="190" as="geometry" />
        </mxCell>
        <mxCell id="rajuUH6wkbv_nezv5G31-2" value="server" style="ellipse;shape=cloud;whiteSpace=wrap;html=1;movableLabel=1;" vertex="1" parent="1">
          <mxGeometry x="110" y="310" width="530" height="340" as="geometry">
            <mxPoint x="-48" y="-86" as="offset" />
          </mxGeometry>
        </mxCell>
        <mxCell id="rajuUH6wkbv_nezv5G31-1" value="&lt;br&gt;&lt;br&gt;DB" style="strokeWidth=2;html=1;shape=mxgraph.flowchart.database;whiteSpace=wrap;fillColor=#f5f5f5;fontColor=#333333;strokeColor=#666666;" vertex="1" parent="1">
          <mxGeometry x="400" y="450" width="130" height="90" as="geometry" />
        </mxCell>
        <mxCell id="diT2KmM1LXYmS_JBKyu8-7" value="LicenseHub" style="shape=cube;whiteSpace=wrap;html=1;boundedLbl=1;backgroundOutline=1;darkOpacity=0.05;darkOpacity2=0.1;fillColor=#f8cecc;strokeColor=#b85450;" vertex="1" parent="1">
          <mxGeometry x="-190" y="470" width="210" height="125" as="geometry" />
        </mxCell>
        <mxCell id="diT2KmM1LXYmS_JBKyu8-9" value="software A&lt;br&gt;&lt;br&gt;&lt;br&gt;&lt;br&gt;" style="shape=cube;whiteSpace=wrap;html=1;boundedLbl=1;backgroundOutline=1;darkOpacity=0.05;darkOpacity2=0.1;" vertex="1" parent="1">
          <mxGeometry x="810" y="140" width="130" height="100" as="geometry" />
        </mxCell>
        <mxCell id="diT2KmM1LXYmS_JBKyu8-10" value="" style="endArrow=classic;startArrow=classic;html=1;rounded=0;exitX=0;exitY=0;exitDx=210;exitDy=72.5;exitPerimeter=0;entryX=0.102;entryY=0.675;entryDx=0;entryDy=0;entryPerimeter=0;" edge="1" parent="1" source="diT2KmM1LXYmS_JBKyu8-7" target="rajuUH6wkbv_nezv5G31-2">
          <mxGeometry width="50" height="50" relative="1" as="geometry">
            <mxPoint x="430" y="460" as="sourcePoint" />
            <mxPoint x="480" y="410" as="targetPoint" />
          </mxGeometry>
        </mxCell>
        <mxCell id="diT2KmM1LXYmS_JBKyu8-15" value="" style="endArrow=none;dashed=1;html=1;dashPattern=1 3;strokeWidth=2;rounded=0;" edge="1" parent="1">
          <mxGeometry width="50" height="50" relative="1" as="geometry">
            <mxPoint x="864" y="790" as="sourcePoint" />
            <mxPoint x="864.4100000000001" y="700" as="targetPoint" />
          </mxGeometry>
        </mxCell>
        <mxCell id="diT2KmM1LXYmS_JBKyu8-16" value="" style="endArrow=classic;startArrow=classic;html=1;rounded=0;entryX=0;entryY=0;entryDx=0;entryDy=40;entryPerimeter=0;exitX=0.907;exitY=0.316;exitDx=0;exitDy=0;exitPerimeter=0;" edge="1" parent="1" source="rajuUH6wkbv_nezv5G31-2" target="diT2KmM1LXYmS_JBKyu8-9">
          <mxGeometry width="50" height="50" relative="1" as="geometry">
            <mxPoint x="430" y="480" as="sourcePoint" />
            <mxPoint x="480" y="430" as="targetPoint" />
          </mxGeometry>
        </mxCell>
        <mxCell id="diT2KmM1LXYmS_JBKyu8-18" value="" style="endArrow=classic;startArrow=classic;html=1;rounded=0;entryX=0;entryY=0;entryDx=0;entryDy=40;entryPerimeter=0;exitX=0.94;exitY=0.575;exitDx=0;exitDy=0;exitPerimeter=0;" edge="1" parent="1" source="rajuUH6wkbv_nezv5G31-2" target="diT2KmM1LXYmS_JBKyu8-39">
          <mxGeometry width="50" height="50" relative="1" as="geometry">
            <mxPoint x="430" y="480" as="sourcePoint" />
            <mxPoint x="790" y="440" as="targetPoint" />
          </mxGeometry>
        </mxCell>
        <mxCell id="diT2KmM1LXYmS_JBKyu8-17" value="" style="endArrow=classic;startArrow=classic;html=1;rounded=0;entryX=0;entryY=0;entryDx=0;entryDy=40;entryPerimeter=0;exitX=0.882;exitY=0.783;exitDx=0;exitDy=0;exitPerimeter=0;" edge="1" parent="1" source="rajuUH6wkbv_nezv5G31-2" target="diT2KmM1LXYmS_JBKyu8-43">
          <mxGeometry width="50" height="50" relative="1" as="geometry">
            <mxPoint x="430" y="480" as="sourcePoint" />
            <mxPoint x="800" y="670" as="targetPoint" />
          </mxGeometry>
        </mxCell>
        <mxCell id="diT2KmM1LXYmS_JBKyu8-34" value="license" style="strokeWidth=2;html=1;shape=mxgraph.flowchart.terminator;whiteSpace=wrap;" vertex="1" parent="1">
          <mxGeometry x="850" y="200" width="70" height="30" as="geometry" />
        </mxCell>
        <mxCell id="diT2KmM1LXYmS_JBKyu8-39" value="software B&lt;br&gt;&lt;br&gt;&lt;br&gt;" style="shape=cube;whiteSpace=wrap;html=1;boundedLbl=1;backgroundOutline=1;darkOpacity=0.05;darkOpacity2=0.1;" vertex="1" parent="1">
          <mxGeometry x="810" y="350" width="130" height="100" as="geometry" />
        </mxCell>
        <mxCell id="diT2KmM1LXYmS_JBKyu8-40" value="license" style="strokeWidth=2;html=1;shape=mxgraph.flowchart.terminator;whiteSpace=wrap;" vertex="1" parent="1">
          <mxGeometry x="850" y="410" width="70" height="30" as="geometry" />
        </mxCell>
        <mxCell id="diT2KmM1LXYmS_JBKyu8-41" value="" style="strokeWidth=2;html=1;shape=mxgraph.flowchart.annotation_2;align=left;labelPosition=right;pointerEvents=1;rotation=-180;" vertex="1" parent="1">
          <mxGeometry x="1000" y="70" width="50" height="410" as="geometry" />
        </mxCell>
        <mxCell id="diT2KmM1LXYmS_JBKyu8-43" value="software A&lt;br&gt;&lt;br&gt;&lt;br&gt;" style="shape=cube;whiteSpace=wrap;html=1;boundedLbl=1;backgroundOutline=1;darkOpacity=0.05;darkOpacity2=0.1;" vertex="1" parent="1">
          <mxGeometry x="810" y="560" width="130" height="100" as="geometry" />
        </mxCell>
        <mxCell id="diT2KmM1LXYmS_JBKyu8-44" value="license" style="strokeWidth=2;html=1;shape=mxgraph.flowchart.terminator;whiteSpace=wrap;" vertex="1" parent="1">
          <mxGeometry x="850" y="620" width="70" height="30" as="geometry" />
        </mxCell>
        <mxCell id="diT2KmM1LXYmS_JBKyu8-45" value="&lt;p style=&quot;line-height: 100%;&quot;&gt;workstation N - PC&amp;nbsp;&lt;br&gt;&lt;br&gt;&lt;br&gt;&lt;br&gt;&lt;br&gt;&lt;br&gt;&lt;br&gt;&lt;br&gt;&lt;br&gt;&lt;br&gt;&lt;/p&gt;" style="shape=cube;whiteSpace=wrap;html=1;boundedLbl=1;backgroundOutline=1;darkOpacity=0.05;darkOpacity2=0.1;fillColor=#dae8fc;strokeColor=#6c8ebf;align=center;" vertex="1" parent="1">
          <mxGeometry x="780" y="800" width="190" height="190" as="geometry" />
        </mxCell>
        <mxCell id="diT2KmM1LXYmS_JBKyu8-46" value="software X&lt;br&gt;&lt;br&gt;&lt;br&gt;" style="shape=cube;whiteSpace=wrap;html=1;boundedLbl=1;backgroundOutline=1;darkOpacity=0.05;darkOpacity2=0.1;" vertex="1" parent="1">
          <mxGeometry x="820" y="870" width="130" height="100" as="geometry" />
        </mxCell>
        <mxCell id="diT2KmM1LXYmS_JBKyu8-47" value="license" style="strokeWidth=2;html=1;shape=mxgraph.flowchart.terminator;whiteSpace=wrap;" vertex="1" parent="1">
          <mxGeometry x="860" y="930" width="70" height="30" as="geometry" />
        </mxCell>
        <mxCell id="diT2KmM1LXYmS_JBKyu8-48" value="" style="endArrow=classic;startArrow=classic;html=1;rounded=0;entryX=0.774;entryY=0.824;entryDx=0;entryDy=0;entryPerimeter=0;exitX=0;exitY=0;exitDx=0;exitDy=40;exitPerimeter=0;" edge="1" parent="1" source="diT2KmM1LXYmS_JBKyu8-46" target="rajuUH6wkbv_nezv5G31-2">
          <mxGeometry width="50" height="50" relative="1" as="geometry">
            <mxPoint x="533.4701472312695" y="619.9974223557406" as="sourcePoint" />
            <mxPoint x="770" y="723.78" as="targetPoint" />
          </mxGeometry>
        </mxCell>
        <mxCell id="diT2KmM1LXYmS_JBKyu8-51" value="client 1" style="text;html=1;align=center;verticalAlign=middle;resizable=0;points=[];autosize=1;strokeColor=none;fillColor=none;" vertex="1" parent="1">
          <mxGeometry x="1050" y="260" width="60" height="30" as="geometry" />
        </mxCell>
        <mxCell id="diT2KmM1LXYmS_JBKyu8-52" value="" style="strokeWidth=2;html=1;shape=mxgraph.flowchart.annotation_2;align=left;labelPosition=right;pointerEvents=1;rotation=-180;" vertex="1" parent="1">
          <mxGeometry x="1000" y="490" width="50" height="190" as="geometry" />
        </mxCell>
        <mxCell id="diT2KmM1LXYmS_JBKyu8-53" value="client 2" style="text;html=1;align=center;verticalAlign=middle;resizable=0;points=[];autosize=1;strokeColor=none;fillColor=none;" vertex="1" parent="1">
          <mxGeometry x="1050" y="570" width="60" height="30" as="geometry" />
        </mxCell>
        <mxCell id="diT2KmM1LXYmS_JBKyu8-55" value="" style="strokeWidth=2;html=1;shape=mxgraph.flowchart.annotation_2;align=left;labelPosition=right;pointerEvents=1;rotation=-180;" vertex="1" parent="1">
          <mxGeometry x="1000" y="740" width="50" height="220" as="geometry" />
        </mxCell>
        <mxCell id="diT2KmM1LXYmS_JBKyu8-56" value="client M" style="text;html=1;align=center;verticalAlign=middle;resizable=0;points=[];autosize=1;strokeColor=none;fillColor=none;" vertex="1" parent="1">
          <mxGeometry x="1050" y="850" width="60" height="30" as="geometry" />
        </mxCell>
        <mxCell id="diT2KmM1LXYmS_JBKyu8-57" value="" style="endArrow=none;dashed=1;html=1;dashPattern=1 3;strokeWidth=2;rounded=0;" edge="1" parent="1">
          <mxGeometry width="50" height="50" relative="1" as="geometry">
            <mxPoint x="1014" y="730" as="sourcePoint" />
            <mxPoint x="1014" y="690" as="targetPoint" />
          </mxGeometry>
        </mxCell>
        <mxCell id="J7I6OtWThFC5UYxJZpEl-1" value="&lt;br&gt;&lt;br&gt;DB" style="strokeWidth=2;html=1;shape=mxgraph.flowchart.database;whiteSpace=wrap;fillColor=#f5f5f5;fontColor=#333333;strokeColor=#666666;" vertex="1" parent="1">
          <mxGeometry x="-140" y="630" width="130" height="90" as="geometry" />
        </mxCell>
        <mxCell id="J7I6OtWThFC5UYxJZpEl-2" value="" style="endArrow=classic;startArrow=classic;html=1;rounded=0;exitX=0.5;exitY=0;exitDx=0;exitDy=0;exitPerimeter=0;entryX=0;entryY=0;entryDx=115;entryDy=125;entryPerimeter=0;" edge="1" parent="1" source="J7I6OtWThFC5UYxJZpEl-1" target="diT2KmM1LXYmS_JBKyu8-7">
          <mxGeometry width="50" height="50" relative="1" as="geometry">
            <mxPoint x="90" y="530" as="sourcePoint" />
            <mxPoint x="140" y="480" as="targetPoint" />
          </mxGeometry>
        </mxCell>
        <mxCell id="J7I6OtWThFC5UYxJZpEl-4" value="intermediary services" style="rounded=0;whiteSpace=wrap;html=1;" vertex="1" parent="1">
          <mxGeometry x="230" y="460" width="140" height="70" as="geometry" />
        </mxCell>
      </root>
    </mxGraphModel>
  </diagram>
</mxfile>
